<?xml version="1.0" encoding="utf-8"?>
<!-- Generator: Adobe Illustrator 23.0.2, SVG Export Plug-In . SVG Version: 6.00 Build 0)  -->
<svg version="1.1" id="Capa_1" xmlns="http://www.w3.org/2000/svg" xmlns:xlink="http://www.w3.org/1999/xlink" x="0px" y="0px"
	 viewBox="0 0 512 512" style="enable-background:new 0 0 512 512;" xml:space="preserve">
<style type="text/css">
	.st0{fill:#555555;}
</style>
<path class="st0" d="M144,326c11,0,20,9,20,20l0,0c0,11-9,20-20,20s-20-9-20-20l0,0C124,335,133,326,144,326z M199,346L199,346
	c0,11,9,20,20,20s20-9,20-20l0,0c0-11-9-20-20-20S199,335,199,346z M274,346L274,346c0,11,9,20,20,20s20-9,20-20l0,0
	c0-11-9-20-20-20S274,335,274,346z M350,346L350,346c0,11,9,20,20,20s20-9,20-20l0,0c0-11-9-20-20-20S350,335,350,346z M440,342v-74
	c0-22.1-17.9-40-40-40H112c-22.1,0-40,17.9-40,40v164c0,22.1,17.9,40,40,40h288c22.1,0,40-17.9,40-40c0-11,9-20,20-20s20,9,20,20
	c0,44.1-35.9,80-80,80H112c-44.1,0-80-35.9-80-80V268c0-44.1,35.9-80,80-80h24v-70.5C136,52.7,189.8,0,256,0s120,52.7,120,117.5V188
	h24c44.1,0,80,35.9,80,80v74c0,11-9,20-20,20S440,353,440,342z M176,188h160v-70.5c0-42.7-35.9-77.5-80-77.5s-80,34.8-80,77.5V188
	L176,188z"/>
</svg>
