<?xml version="1.0" encoding="utf-8"?>
<!-- Generator: Adobe Illustrator 23.0.2, SVG Export Plug-In . SVG Version: 6.00 Build 0)  -->
<svg version="1.1" id="Capa_1" xmlns="http://www.w3.org/2000/svg" xmlns:xlink="http://www.w3.org/1999/xlink" x="0px" y="0px"
	 viewBox="0 0 512 512" style="enable-background:new 0 0 512 512;" xml:space="preserve">
<style type="text/css">
	.st0{fill:#555555;}
</style>
<path class="st0" d="M431,432c-11,0-20-9-20-20s9-20,20-20s20,9,20,20S442,432,431,432z M496.7,344.6c-8.6-19.1-27.8-31.6-49.2-31.6
	h-62.4c0,0-0.1,0-0.1,0c-22.5,0-42.1,13.3-50,33.8c-1.1,2.7-2.3,6.2-3.7,10.2H200.4c-5.4,0-10.6,2.2-14.4,6.1l-34.4,35.4
	c-7.6,7.8-7.5,20.2,0.1,28l35,35.6c3.8,3.8,8.9,6,14.3,6h65c11,0,20-9,20-20s-9-20-20-20h-56.6L194,412.3l14.9-15.3h137.5
	c9.2,0,17.2-6.3,19.4-15.2c1.6-6.6,3.6-13,6.6-20.6c1.9-5,6.8-8.2,12.7-8.2c0,0,0,0,0,0h62.4c5.7,0,10.5,3.1,12.7,7.9
	c5.4,12,11.8,30.6,11.8,51c0,20.5-6.4,39.6-11.7,51.9c-2.2,5-7.1,8.2-12.6,8.2c0,0,0,0,0,0h-63.1c-5.5,0-10.7-3.6-12.9-8.9
	c-2.3-5.7-4.4-12.1-6.2-19.8c-2.6-10.7-13.4-17.4-24.1-14.8c-10.7,2.6-17.4,13.4-14.8,24.1c2.3,9.7,5,18.1,8.1,25.7
	c8.4,20.4,27.9,33.6,49.8,33.6h63.1c0,0,0.1,0,0.1,0c21.4,0,40.6-12.6,49.2-32.2c6.9-15.9,15.1-40.5,15.1-68
	C511.9,384.4,503.6,360.2,496.7,344.6z M151.5,492c0,11-9,20-20,20H60.7c-18.3,0-35.5-8.2-47-22.4C2,475.3-2.5,456.8,1.3,438.7
	c12-57.7,43.8-110.1,89.5-147.7c24.9-20.5,53.4-36.1,83.8-46.1C141.5,220.1,120,180.5,120,136C120,61,181,0,256,0s136,61,136,136
	c0,44.5-21.5,84-54.6,108.9c3.4,1.1,6.7,2.3,10,3.5c10.3,3.9,15.6,15.4,11.7,25.8c-3.9,10.3-15.4,15.6-25.8,11.7
	c-23.1-8.7-47.4-13.4-72.2-13.9c-1.7,0.1-3.4,0.1-5.1,0.1c-1.7,0-3.4,0-5.1-0.1c-101.6,2.4-189.7,75.2-210.4,175
	c-1.3,6.2,0.2,12.6,4.2,17.5c2.3,2.8,7.5,7.6,16,7.6h70.8C142.5,472,151.5,481,151.5,492z M251.3,231.9c1.6,0,3.1-0.1,4.7-0.1
	c1.6,0,3.1,0,4.7,0.1c50.8-2.4,91.3-44.5,91.3-95.9c0-52.9-43.1-96-96-96s-96,43.1-96,96C160,187.4,200.5,229.4,251.3,231.9z"/>
</svg>
