<?xml version="1.0" encoding="utf-8"?>
<!-- Generator: Adobe Illustrator 23.0.2, SVG Export Plug-In . SVG Version: 6.00 Build 0)  -->
<svg version="1.1" id="Capa_1" xmlns="http://www.w3.org/2000/svg" xmlns:xlink="http://www.w3.org/1999/xlink" x="0px" y="0px"
	 viewBox="0 0 117.3 37.6" style="enable-background:new 0 0 117.3 37.6;" xml:space="preserve">
<style type="text/css">
	.st0{fill:#FFFFFF;}
	.st1{fill:#0070B7;}
	.st2{fill:#173765;}
	.st3{fill:#8CB0DF;}
</style>
<g>
	<path class="st0" d="M0,0v24.8c0,7,5.7,12.8,12.8,12.8h91.8c7,0,12.8-5.7,12.8-12.8V0H0z"/>
	<g>
		<g>
			<path class="st1" d="M43.8,13.8c-0.2,0.1-0.5,0.1-1,0.1c-1,0-1.7-0.5-1.7-1.4c0-0.7,0.4-1.3,1-1.6c0.4-0.2,0.9-0.3,1.4-0.3
				c0.4,0,0.7,0.1,0.8,0.1l-0.2,0.6c-0.1,0-0.4-0.1-0.7-0.1c-0.3,0-0.6,0.1-0.9,0.2c-0.3,0.2-0.5,0.6-0.5,1c0,0.5,0.3,0.8,1,0.8
				c0.3,0,0.5,0,0.7-0.1L43.8,13.8z"/>
			<path class="st1" d="M47.1,12.5c0,0.8-0.7,1.5-1.6,1.5c-0.7,0-1.2-0.4-1.2-1c0-0.8,0.7-1.5,1.6-1.5C46.6,11.6,47.1,12,47.1,12.5z
				 M45.1,13c0,0.3,0.2,0.4,0.4,0.4c0.4,0,0.7-0.5,0.7-0.9c0-0.2-0.1-0.4-0.4-0.4C45.3,12.1,45.1,12.7,45.1,13z"/>
			<path class="st1" d="M50.2,12.5c0,0.8-0.7,1.5-1.6,1.5c-0.7,0-1.2-0.4-1.2-1c0-0.8,0.7-1.5,1.6-1.5C49.8,11.6,50.2,12,50.2,12.5z
				 M48.3,13c0,0.3,0.2,0.4,0.4,0.4c0.4,0,0.7-0.5,0.7-0.9c0-0.2-0.1-0.4-0.4-0.4C48.5,12.1,48.3,12.7,48.3,13z"/>
			<path class="st1" d="M50.2,14.9l0.5-2.4c0.1-0.3,0.1-0.7,0.2-0.9h0.7L51.6,12h0c0.2-0.3,0.6-0.4,0.9-0.4c0.6,0,0.9,0.4,0.9,0.9
				c0,0.8-0.6,1.5-1.6,1.5c-0.2,0-0.4,0-0.5-0.1h0l-0.2,1H50.2z M51.4,13.4c0.1,0.1,0.2,0.1,0.4,0.1c0.4,0,0.8-0.5,0.8-1
				c0-0.2-0.1-0.4-0.4-0.4c-0.3,0-0.6,0.3-0.7,0.7L51.4,13.4z"/>
			<path class="st1" d="M55.9,13.8c-0.3,0.1-0.7,0.2-1,0.2c-0.8,0-1.2-0.4-1.2-1c0-0.7,0.6-1.4,1.6-1.4c0.6,0,1,0.3,1,0.7
				c0,0.6-0.7,0.8-1.8,0.8c0,0.1,0,0.2,0.1,0.2c0.1,0.1,0.3,0.2,0.5,0.2c0.3,0,0.6-0.1,0.8-0.1L55.9,13.8z M55.2,12.1
				c-0.4,0-0.6,0.3-0.6,0.5c0.6,0,0.9-0.1,0.9-0.3C55.5,12.2,55.4,12.1,55.2,12.1z"/>
			<path class="st1" d="M56.5,13.9l0.3-1.4c0.1-0.3,0.1-0.7,0.1-0.9h0.7c0,0.2,0,0.3-0.1,0.5h0c0.2-0.3,0.5-0.5,0.9-0.5
				c0.1,0,0.1,0,0.2,0l-0.2,0.7c0,0-0.1,0-0.1,0c-0.5,0-0.8,0.4-0.9,0.8l-0.2,0.9H56.5z"/>
			<path class="st1" d="M60.3,13.9c0-0.1,0-0.3,0-0.5h0C60,13.9,59.7,14,59.4,14c-0.5,0-0.8-0.3-0.8-0.8c0-0.8,0.6-1.6,2-1.6
				c0.3,0,0.7,0.1,0.9,0.1l-0.3,1.2c-0.1,0.3-0.1,0.8-0.1,1H60.3z M60.5,12.1c-0.1,0-0.1,0-0.2,0c-0.5,0-0.9,0.5-0.9,1
				c0,0.2,0.1,0.4,0.3,0.4c0.2,0,0.5-0.2,0.7-0.8L60.5,12.1z"/>
			<path class="st1" d="M63.2,11L63,11.6h0.6l-0.1,0.5h-0.6l-0.2,0.8c0,0.1,0,0.2,0,0.3c0,0.1,0.1,0.2,0.2,0.2c0.1,0,0.2,0,0.2,0
				L63,13.9c-0.1,0-0.3,0.1-0.5,0.1c-0.5,0-0.7-0.2-0.7-0.5c0-0.1,0-0.3,0.1-0.4l0.2-0.9h-0.3l0.1-0.5h0.4l0.1-0.5L63.2,11z"/>
			<path class="st1" d="M63.6,13.9l0.5-2.3h0.8l-0.5,2.3H63.6z M64.2,11c0-0.2,0.2-0.4,0.5-0.4c0.2,0,0.4,0.1,0.4,0.3
				c0,0.2-0.2,0.4-0.5,0.4C64.4,11.3,64.2,11.2,64.2,11z"/>
			<path class="st1" d="M66.1,11.6l0.1,1c0,0.3,0.1,0.5,0.1,0.6h0c0.1-0.2,0.2-0.3,0.3-0.6l0.6-1H68l-1.5,2.3h-0.8l-0.5-2.3H66.1z"
				/>
			<path class="st1" d="M69.6,13.9c0-0.1,0-0.3,0-0.5h0C69.4,13.9,69,14,68.7,14c-0.5,0-0.8-0.3-0.8-0.8c0-0.8,0.6-1.6,2-1.6
				c0.3,0,0.7,0.1,0.9,0.1l-0.3,1.2c-0.1,0.3-0.1,0.8-0.1,1H69.6z M69.8,12.1c-0.1,0-0.1,0-0.2,0c-0.5,0-0.9,0.5-0.9,1
				c0,0.2,0.1,0.4,0.3,0.4c0.2,0,0.5-0.2,0.7-0.8L69.8,12.1z"/>
		</g>
		<path class="st2" d="M41.1,15.3c0.9-0.2,2.2-0.3,3.5-0.3c1.2,0,2.6,0.2,3.6,0.8c0.9,0.5,1.4,1.3,1.4,2.5c0,1.5-0.8,2.6-1.9,3.3
			c-1.1,0.7-2.7,1.1-4.3,1.1c-0.5,0-0.9,0-1.2-0.1l-1,4.2l-2.8,0L41.1,15.3z M42.8,20.5c0.3,0.1,0.6,0.1,1.1,0.1
			c1.7,0,2.9-1,2.9-2.1c0-1.1-0.9-1.5-2-1.5c-0.5,0-0.9,0-1.2,0.1L42.8,20.5z"/>
		<path class="st2" d="M65.4,26.5c-0.6,0.3-1.6,0.4-2.8,0.4c-2.4,0-4.1-1.3-4.1-3.5c0-3,2.7-5.3,6.5-5.3c0.8,0,1.6,0.1,2,0.3
			l-0.7,1.9c-0.3-0.1-0.7-0.2-1.3-0.2c-2.1,0-3.4,1.5-3.4,3.1c0,1.2,0.8,1.7,1.9,1.7c0.8,0,1.4-0.2,2-0.3L65.4,26.5z"/>
		<path class="st2" d="M88.8,26.5C88.2,26.8,87.2,27,86,27c-2.4,0-4.1-1.3-4.1-3.5c0-3,2.7-5.3,6.5-5.3c0.8,0,1.6,0.1,2,0.3
			l-0.7,1.9c-0.3-0.1-0.7-0.2-1.3-0.2c-2.1,0-3.4,1.5-3.4,3.1c0,1.2,0.8,1.7,1.9,1.7c0.8,0,1.4-0.2,2-0.3L88.8,26.5z"/>
		<path class="st2" d="M99.6,21.7c0,3.1-2.5,5.3-5.9,5.3c-2.5,0-4.1-1.4-4.1-3.5c0-2.9,2.4-5.3,5.9-5.3
			C98.1,18.2,99.6,19.7,99.6,21.7z M92.5,23.5c0,1,0.5,1.6,1.5,1.6c1.6,0,2.5-2,2.5-3.4c0-0.8-0.4-1.6-1.5-1.6
			C93.4,20.1,92.5,22.1,92.5,23.5z"/>
		<g>
			<path class="st1" d="M29.3,16.4c-1.7-3.9-7.2,3.2-9.3,0.6l-0.8,3.4c2.3,1.8,7.4-4.6,9-0.9c1.7,3.9,7.3-3.4,9.4-0.5l0.8-3.4
				C36.1,13.6,30.9,20.1,29.3,16.4z"/>
			<path class="st3" d="M30.1,11.8c-1.6-3.7-6.8,2.7-9,0.8l-0.8,3.3c2.4,1.2,7.2-4.6,8.7-1c1.8,4.1,7.7-3.9,9.6-0.1l0.8-3.5
				C37.3,8.5,31.7,15.7,30.1,11.8z"/>
			<path class="st2" d="M28.5,20.9c-1.7-4-7.6,3.7-9.5,0.3l-1.3,5.4l0,0.1h18l1.6-6.8C35,18.6,30.1,24.6,28.5,20.9z"/>
		</g>
		<path class="st2" d="M54.7,25.1c-0.1,0.6-0.1,1.2-0.2,1.6h2.7c0-1.1,0.2-2.7,0.4-3.8l1.1-4.4c-0.8-0.2-2.1-0.4-3.2-0.4
			c-4.8,0-7.1,3-7.1,5.9c0,1.8,1.2,2.9,2.9,2.9C52.5,26.9,53.7,26.5,54.7,25.1L54.7,25.1z M52.6,24.9c-0.8,0-1.2-0.6-1.2-1.4
			c0-1.6,1.4-3.5,3.3-3.5c0.3,0,0.6,0,0.8,0.1L55,22C54.5,24.1,53.4,24.9,52.6,24.9z"/>
		<g>
			<polygon class="st2" points="73.6,14.7 70.7,14.7 68.8,17.3 70.9,17.3 			"/>
			<polygon class="st2" points="69.3,26.7 71.2,18.3 68.3,18.3 66.4,26.7 			"/>
		</g>
		<path class="st2" d="M71.5,26.7h2.9l1.5-6.5l1.9,0l0.4-1.9l-1.9,0l0.1-0.4c0.2-0.8,0.8-1.6,1.7-1.6c0.4,0,0.7,0.1,0.9,0.2l0.5-2
			c-0.3-0.1-0.8-0.2-1.5-0.2c-1,0-2,0.2-2.8,0.8c-1,0.7-1.5,1.8-1.7,2.7l-0.1,0.4l-1.3,0l-0.4,1.9l1.3,0L71.5,26.7z"/>
		<g>
			<path class="st2" d="M81.2,17.3c0.9,0,1.7-0.5,1.7-1.4c0-0.7-0.6-1.2-1.4-1.2c-0.9,0-1.7,0.6-1.7,1.4
				C79.8,16.8,80.4,17.3,81.2,17.3z"/>
			<polygon class="st2" points="80.3,26.7 82.3,18.4 79.4,18.4 77.4,26.7 			"/>
		</g>
	</g>
</g>
</svg>
