<?xml version="1.0" encoding="utf-8"?>
<!-- Generator: Adobe Illustrator 23.0.2, SVG Export Plug-In . SVG Version: 6.00 Build 0)  -->
<svg version="1.1" id="Capa_1" xmlns="http://www.w3.org/2000/svg" xmlns:xlink="http://www.w3.org/1999/xlink" x="0px" y="0px"
	 viewBox="0 0 600 120" style="enable-background:new 0 0 600 120;" xml:space="preserve">
<style type="text/css">
	.st0{fill-rule:evenodd;clip-rule:evenodd;fill:#FFFFFF;}
</style>
<g>
	<path id="Fill-1" class="st0" d="M191.3,24.3c-1.5,0.6-4.1,1-7.5,1c-7.5,0-12.6-3.7-12.6-9.8c0-5.2,2.9-9.2,7.2-11.6
		c3-1.7,6.5-2.5,10.5-2.5c3.1,0,5.4,0.6,6.2,1l-1.6,4c-0.8-0.3-2.7-0.8-5.2-0.8s-4.8,0.6-6.5,1.8c-2.4,1.6-3.9,4.2-3.9,7.4
		c0,3.7,2.5,6.1,7.6,6.1c2,0,4-0.3,5.4-0.8L191.3,24.3z"/>
	<path id="Fill-3" class="st0" d="M201.2,18.2c0,2,1.1,3.3,3.2,3.3c3.2,0,5-3.9,5-6.8c0-1.5-0.8-3.2-3.1-3.2
		C202.8,11.5,201.1,15.6,201.2,18.2 M215.4,14.6c0,6.1-5,10.6-11.9,10.6c-5.1,0-8.4-2.8-8.4-6.9c0-5.8,4.8-10.6,11.9-10.6
		C212.3,7.7,215.4,10.8,215.4,14.6"/>
	<path id="Fill-5" class="st0" d="M223.6,18.2c0,2,1.1,3.3,3.2,3.3c3.2,0,5-3.9,5-6.8c0-1.5-0.8-3.2-3.1-3.2
		C225.3,11.5,223.6,15.6,223.6,18.2 M237.9,14.6c0,6.1-5,10.6-11.9,10.6c-5.1,0-8.4-2.8-8.4-6.9c0-5.8,4.8-10.6,11.9-10.6
		C234.8,7.7,237.9,10.8,237.9,14.6"/>
	<path id="Fill-7" class="st0" d="M247.1,20.3c0.7,0.5,1.6,0.8,2.7,0.8c3.2,0,5.7-3.9,5.7-7.3c0-1.4-0.7-2.8-2.6-2.8
		c-2.2,0-4.3,2.1-5.1,5.5L247.1,20.3z M238.6,31.6l3.9-17.5c0.4-2,1-4.9,1.2-6.6h5.3l-0.4,2.5h0.1c1.7-1.9,4.1-2.9,6.5-2.9
		c4.4,0,6.5,3,6.5,6.5c0,6-4.7,11.5-11.7,11.5c-1.7,0-3.1-0.4-3.8-0.7h-0.1l-1.7,7.3h-5.8V31.6z"/>
	<path id="Fill-9" class="st0" d="M274.6,11.3c-2.7,0-4.2,1.9-4.6,3.5c4.5,0,6.7-0.5,6.7-2C276.7,11.9,275.9,11.3,274.6,11.3
		L274.6,11.3z M279.7,24c-2.3,1-5.1,1.3-7.3,1.3c-5.6,0-8.5-2.7-8.5-7.1c0-5.1,4.3-10.5,11.4-10.5c4,0,6.8,1.9,6.8,5
		c0,4.3-4.9,5.9-12.7,5.7c0,0.5,0.2,1.2,0.6,1.7c0.8,0.9,2.1,1.3,3.8,1.3c2.1,0,3.9-0.4,5.5-1.1L279.7,24z"/>
	<path id="Fill-11" class="st0" d="M283.5,24.6l2.2-10.2c0.6-2.6,0.8-5.5,1-6.9h5.1c-0.1,1.2-0.2,2.3-0.4,3.5h0.1
		c1.4-2.3,3.6-3.9,6.3-3.9c0.4,0,0.7,0,1.1,0l-1.1,4.9c-0.3,0-0.6,0-0.9,0c-3.7,0-5.5,2.9-6.2,6.2l-1.4,6.4H283.5z"/>
	<path id="Fill-13" class="st0" d="M313.3,11.6c-0.5-0.1-1-0.1-1.6-0.1c-3.8,0-6.6,3.9-6.6,7c0,1.7,0.8,2.8,2.4,2.8
		c1.8,0,3.9-1.7,4.8-5.8L313.3,11.6z M311.6,24.9c0-1,0.2-2.1,0.3-3.3h-0.1c-1.9,2.8-4.4,3.7-6.7,3.7c-3.6,0-6.1-2.3-6.1-5.8
		c0-5.7,4.5-11.7,14.4-11.7c2.4,0,5,0.4,6.7,0.8l-2.1,8.8c-0.5,2.2-0.9,5.5-0.8,7.6h-5.6V24.9z"/>
	<path id="Fill-15" class="st0" d="M333,2.8l-1,4.7h4.2l-0.9,3.7h-4.2l-1.3,5.7c-0.2,0.7-0.3,1.5-0.3,2.1c0,0.8,0.4,1.4,1.7,1.4
		c0.5,0,1.1,0,1.6-0.1l-0.7,3.9c-0.7,0.2-2.2,0.4-3.4,0.4c-3.5,0-5.2-1.5-5.2-3.6c0-0.9,0.1-1.8,0.4-3.1l1.6-6.7H323l0.8-3.7h2.6
		L327,4L333,2.8z"/>
	<path id="Fill-17" class="st0" d="M340.2,2.9c0-1.7,1.6-2.9,3.5-2.9c1.8,0,3,1,3,2.5c0,1.8-1.6,2.8-3.6,2.8
		C341.4,5.3,340.2,4.4,340.2,2.9L340.2,2.9z M335.4,24.6l3.9-17.1h6l-3.9,17.1H335.4z"/>
	<path id="Fill-19" class="st0" d="M354.1,7.7l0.9,7.4c0.2,2.1,0.4,3.3,0.5,4.6h0.2c0.5-1.2,1.1-2.5,2.2-4.5l4-7.4h6.5l-11.1,16.8
		h-5.9L348,7.8h6.1V7.7z"/>
	<path id="Fill-21" class="st0" d="M381.4,11.6c-0.5-0.1-1-0.1-1.6-0.1c-3.8,0-6.6,3.9-6.6,7c0,1.7,0.8,2.8,2.4,2.8
		c1.8,0,4-1.7,4.9-5.8L381.4,11.6z M379.7,24.9c0-1,0.2-2.1,0.3-3.3h-0.1c-1.8,2.8-4.4,3.7-6.7,3.7c-3.6,0-6.1-2.3-6.1-5.8
		c0-5.7,4.5-11.7,14.4-11.7c2.4,0,5,0.4,6.7,0.8l-2.1,8.8c-0.5,2.2-0.9,5.5-0.8,7.6h-5.6V24.9z"/>
</g>
<g>
	<path id="Fill-23" class="st0" d="M182.9,72.5c2.2,0.4,4.5,0.6,8.1,0.6c12.8,0,21.3-7,21.4-15.5c0.1-8.2-6.8-10.9-15-10.9
		c-4,0-6.8,0.2-8.5,0.6L182.9,72.5z M171,34.5c6.3-1.4,16.4-2.2,25.9-2.2c8.8,0,19.1,1.3,26.2,5.7c6.6,3.9,10.6,9.9,10.5,18
		c-0.1,10.7-6,18.8-13.8,23.9c-8.2,5.4-19.7,7.8-31.7,7.8c-3.5,0-6.5-0.3-8.7-0.5l-7.2,30.6h-20.7L171,34.5z"/>
	<path id="Fill-25" class="st0" d="M276.2,69.7c-1.6-0.3-3.7-0.5-5.8-0.5c-13.8,0-24.1,14.4-24.2,25.9c-0.1,6.1,2.7,10.3,8.6,10.3
		c6.4,0,14.3-6.2,17.8-21.3L276.2,69.7z M269.3,118.6c0.2-3.7,0.7-7.8,1.2-12.3h-0.4c-6.8,10.2-16.1,13.6-24.5,13.6
		c-13.1,0-21.9-8.6-21.7-21.5c0.3-20.8,16.7-43.1,52.5-43c8.6,0,17.9,1.4,24,3.1l-8.1,32.4c-1.9,8-3.4,20.1-3.2,27.8L269.3,118.6z"
		/>
	<path id="Fill-27" class="st0" d="M349.9,116.9c-4.6,1.9-11.9,3.2-20.4,3.1c-17.7,0-30.1-9.3-29.9-25.4c0.3-22,20-39.2,47.3-39.2
		c6.2,0,11.4,1,14.5,2.2l-5.3,13.9c-2.5-0.9-5.4-1.5-9.6-1.5c-15.1,0-24.5,11-24.6,22.6c-0.1,8.5,6,12.8,13.9,12.8
		c6.1,0,10.6-1.3,14.3-2.5L349.9,116.9z"/>
	<path id="Fill-29" class="st0" d="M409.1,30.2l-19.5,19.2H374l14.1-19.2H409.1z M356.5,118.6L371,56.8h21.2l-14.5,61.8H356.5z"/>
	<path id="Fill-31" class="st0" d="M393.7,118.6l11.1-48.1h-9.3l3.3-13.8h9.3l0.8-3.3c1.6-7.2,5.1-14.9,12.4-20.1
		c5.8-4.3,13.6-5.9,20.7-5.9c5.2,0,9,0.7,11.4,1.5l-3.9,14.6c-1.9-0.8-4.1-1.1-7-1.2c-6.8,0-11.2,5.2-12.6,11.4l-0.8,3h14.4
		l-3.3,13.8H426l-11.1,48.1L393.7,118.6z"/>
	<path id="Fill-33" class="st0" d="M455.6,40.5c0.2-6.2,5.9-10.3,12.4-10.3c6.2,0,10.6,3.5,10.5,9c-0.1,6.4-5.9,10.2-12.7,10.2
		C460,49.3,455.6,45.9,455.6,40.5L455.6,40.5z M437.9,118.6L452.5,57h21.3l-14.6,61.6H437.9z"/>
	<path id="Fill-35" class="st0" d="M520.5,116.9c-4.6,1.9-11.9,3.1-20.4,3.1c-17.7,0-30.1-9.3-29.9-25.4c0.3-22,20-39.2,47.3-39.2
		c6.1,0,11.4,1,14.5,2.2l-5.3,13.9c-2.5-0.9-5.4-1.5-9.6-1.5c-15.1,0-24.5,11-24.6,22.6c-0.1,8.5,6,12.8,13.9,12.8
		c6.2,0,10.6-1.3,14.3-2.5L520.5,116.9z"/>
	<path id="Fill-37" class="st0" d="M548.3,94.1c-0.1,7.2,4,12,11.3,12c11.6,0,18.3-14.5,18.4-25.1c0.1-5.7-2.6-11.8-11.2-11.8
		C554.6,69.2,548.2,84.5,548.3,94.1 M600,80.9c-0.3,22.6-18.5,39.2-43.5,39.1c-18.3,0-30.4-10.3-30.2-25.6c0.3-21.5,17.9-39,43.5-39
		C589.1,55.5,600.2,66.9,600,80.9"/>
</g>
<path id="Fill-39" class="st0" d="M84.4,42.3c-12.3-28.3-52.6,23.5-68,4.2l-5.8,24.8C27.3,84.2,64.7,38,76.4,65
	C88.9,93.7,130,40.2,145,61.6l5.9-25.1C134.5,21.9,96.3,69.7,84.4,42.3"/>
<path id="Fill-41" class="st0" d="M90.7,8.7c-11.8-27.4-49.7,20-66.1,5.9L19,38.8c17.4,8.6,52.5-33.6,63.8-7.4
	c12.8,29.6,56.3-28.7,69.8-0.9l6-25.8C143.3-15.2,103,37,90.7,8.7"/>
<path id="Fill-43" class="st0" d="M79,75.4C66.3,46,23.6,102.7,9.4,77.3l-9.3,39.9L0,117.9h132.3l11.6-49.6
	C126.6,58.1,90.5,102,79,75.4"/>
</svg>
