<svg id="Grupo_7322" data-name="Grupo 7322" xmlns="http://www.w3.org/2000/svg" xmlns:xlink="http://www.w3.org/1999/xlink" width="22.282" height="22.295" viewBox="0 0 22.282 22.295">
  <defs>
    <clipPath id="clip-path">
      <rect id="Retângulo_2174" data-name="Retângulo 2174" width="22.282" height="22.295"/>
    </clipPath>
  </defs>
  <g id="Grupo_7321" data-name="Grupo 7321" clip-path="url(#clip-path)">
    <path id="Caminho_6730" data-name="Caminho 6730" d="M22.282,11.881c-.058.407-.106.816-.175,1.221a10.767,10.767,0,0,1-1.083,3.191.7.7,0,1,1-1.251-.629,9.843,9.843,0,0,0,1-2.991A9.422,9.422,0,0,0,19.737,6.6a9.255,9.255,0,0,0-6.482-4.954A9.476,9.476,0,0,0,3.5,5.116a9.234,9.234,0,0,0-2.064,5.1,9.756,9.756,0,0,0,13.118,10.06,1.056,1.056,0,0,1,.526-.052.65.65,0,0,1,.512.625.664.664,0,0,1-.456.692,16.963,16.963,0,0,1-1.936.549,10.661,10.661,0,0,1-6.483-.722A10.8,10.8,0,0,1,.266,13.523,11.083,11.083,0,0,1,7.173.724,10.728,10.728,0,0,1,10.209.04,1.394,1.394,0,0,0,10.4,0h1.523a1.437,1.437,0,0,0,.164.041c.38.05.765.077,1.14.15A10.974,10.974,0,0,1,19.252,3.5a10.874,10.874,0,0,1,2.9,5.956c.045.3.085.6.127.9Z" transform="translate(0)"/>
    <path id="Caminho_6731" data-name="Caminho 6731" d="M86.047,196.462c.767.766,1.489,1.49,2.212,2.211a.76.76,0,0,1,.278.588.674.674,0,0,1-.4.62.65.65,0,0,1-.733-.094c-.138-.116-.261-.252-.389-.38q-1.545-1.547-3.09-3.094a.7.7,0,0,1,0-1.1q1.683-1.686,3.369-3.369a.7.7,0,1,1,.992.988q-1.02,1.026-2.045,2.047c-.05.05-.1.1-.172.181.106,0,.181.011.256.011h7.071a.695.695,0,0,1,.228,1.358,1.035,1.035,0,0,1-.3.032q-3.492,0-6.984,0h-.292" transform="translate(-78.79 -180.447)"/>
    <path id="Caminho_6732" data-name="Caminho 6732" d="M103.78,52.7H96.435a.694.694,0,0,1-.212-1.36,1.066,1.066,0,0,1,.3-.03q3.493,0,6.986,0h.271c-.08-.086-.125-.139-.175-.188-.692-.693-1.388-1.382-2.076-2.078a.7.7,0,0,1,.266-1.186.648.648,0,0,1,.683.162q1.758,1.75,3.507,3.509a.666.666,0,0,1-.019.975q-1.726,1.736-3.46,3.463a.7.7,0,1,1-.987-.987c.694-.7,1.394-1.4,2.091-2.094.049-.049.094-.1.171-.185" transform="translate(-90.161 -45.043)"/>
  </g>
</svg>
