<svg xmlns="http://www.w3.org/2000/svg" width="25.89" height="25.89" viewBox="0 0 25.89 25.89">
  <path id="Icon_awesome-whatsapp" data-name="Icon awesome-whatsapp" d="M22.012,6.012A12.834,12.834,0,0,0,1.82,21.494L0,28.14l6.8-1.786a12.79,12.79,0,0,0,6.132,1.56h.006A12.953,12.953,0,0,0,25.89,15.085a12.88,12.88,0,0,0-3.878-9.073ZM12.939,25.753a10.645,10.645,0,0,1-5.432-1.485l-.387-.231L3.086,25.095l1.075-3.936-.254-.4a10.684,10.684,0,1,1,19.816-5.669A10.783,10.783,0,0,1,12.939,25.753Zm5.848-7.987c-.318-.162-1.9-.936-2.19-1.04s-.509-.162-.722.162-.826,1.04-1.017,1.26-.376.243-.693.081A8.726,8.726,0,0,1,9.8,14.415c-.329-.566.329-.526.942-1.751a.594.594,0,0,0-.029-.561c-.081-.162-.722-1.739-.988-2.381C9.466,9.1,9.2,9.185,9,9.173s-.4-.012-.613-.012a1.188,1.188,0,0,0-.855.4,3.6,3.6,0,0,0-1.121,2.676,6.28,6.28,0,0,0,1.306,3.317A14.325,14.325,0,0,0,13.2,20.4c2.034.878,2.832.954,3.849.8a3.283,3.283,0,0,0,2.161-1.526,2.681,2.681,0,0,0,.185-1.526C19.319,18,19.106,17.923,18.788,17.767Z" transform="translate(0 -2.25)"/>
</svg>
