<svg xmlns="http://www.w3.org/2000/svg" width="24.434" height="24.434" viewBox="0 0 24.434 24.434">
  <path id="Icon_awesome-phone-alt" data-name="Icon awesome-phone-alt" d="M19.19,13.959l-4.321-1.852a.926.926,0,0,0-1.08.266l-1.914,2.338A14.3,14.3,0,0,1,5.039,7.875L7.377,5.962a.924.924,0,0,0,.266-1.08L5.791.56A.932.932,0,0,0,4.73.024L.718.95a.926.926,0,0,0-.718.9,17.9,17.9,0,0,0,17.9,17.9.926.926,0,0,0,.9-.718l.926-4.013a.937.937,0,0,0-.541-1.065Z" transform="translate(5.445 0) rotate(16)"/>
</svg>
