<svg xmlns="http://www.w3.org/2000/svg" width="46.749" height="45.801" viewBox="0 0 46.749 45.801">
  <g id="Grupo_7156" data-name="Grupo 7156" transform="translate(-513.669 -1.604)">
    <g id="Retângulo_10" data-name="Retângulo 10" transform="translate(513.669 1.604)" fill="none" stroke="#000" stroke-width="1">
      <rect width="46.749" height="45.801" stroke="none"/>
      <rect x="0.5" y="0.5" width="45.749" height="44.801" fill="none"/>
    </g>
    <path id="Icon_awesome-instagram" data-name="Icon awesome-instagram" d="M11.7,7.936a6,6,0,1,0,6,6A5.987,5.987,0,0,0,11.7,7.936Zm0,9.9a3.9,3.9,0,1,1,3.9-3.9,3.906,3.906,0,0,1-3.9,3.9ZM19.336,7.691a1.4,1.4,0,1,1-1.4-1.4A1.4,1.4,0,0,1,19.336,7.691Zm3.972,1.42a6.922,6.922,0,0,0-1.889-4.9,6.968,6.968,0,0,0-4.9-1.889c-1.931-.11-7.719-.11-9.65,0A6.958,6.958,0,0,0,1.966,4.2,6.945,6.945,0,0,0,.077,9.1c-.11,1.931-.11,7.719,0,9.65a6.922,6.922,0,0,0,1.889,4.9,6.977,6.977,0,0,0,4.9,1.889c1.931.11,7.719.11,9.65,0a6.922,6.922,0,0,0,4.9-1.889,6.968,6.968,0,0,0,1.889-4.9c.11-1.931.11-7.714,0-9.645ZM20.813,20.827a3.947,3.947,0,0,1-2.223,2.223c-1.54.611-5.193.47-6.895.47s-5.36.136-6.895-.47a3.947,3.947,0,0,1-2.223-2.223c-.611-1.54-.47-5.193-.47-6.895s-.136-5.36.47-6.895A3.947,3.947,0,0,1,4.8,4.815c1.54-.611,5.193-.47,6.895-.47s5.36-.136,6.895.47a3.947,3.947,0,0,1,2.223,2.223c.611,1.54.47,5.193.47,6.895S21.424,19.293,20.813,20.827Z" transform="translate(526.167 10.572)"/>
  </g>
</svg>
