<svg xmlns="http://www.w3.org/2000/svg" width="46.749" height="45.801" viewBox="0 0 46.749 45.801">
  <g id="Grupo_7155" data-name="Grupo 7155" transform="translate(-458.669 -1.604)">
    <g id="Retângulo_10" data-name="Retângulo 10" transform="translate(458.669 1.604)" fill="none" stroke="#000" stroke-width="1">
      <rect width="46.749" height="45.801" stroke="none"/>
      <rect x="0.5" y="0.5" width="45.749" height="44.801" fill="none"/>
    </g>
    <path id="Icon_awesome-youtube" data-name="Icon awesome-youtube" d="M28.86,7.625A3.569,3.569,0,0,0,26.349,5.1c-2.215-.6-11.1-.6-11.1-.6s-8.882,0-11.1.6A3.569,3.569,0,0,0,1.644,7.625a37.439,37.439,0,0,0-.594,6.881,37.439,37.439,0,0,0,.594,6.881,3.516,3.516,0,0,0,2.511,2.487c2.215.6,11.1.6,11.1.6s8.882,0,11.1-.6a3.516,3.516,0,0,0,2.511-2.487,37.439,37.439,0,0,0,.594-6.881,37.439,37.439,0,0,0-.594-6.881Zm-16.513,11.1V10.283l7.424,4.223-7.424,4.223Z" transform="translate(467.436 9.605)"/>
  </g>
</svg>
