<svg xmlns="http://www.w3.org/2000/svg" width="17.651" height="17.652" viewBox="0 0 17.651 17.652">
  <g id="Grupo_6777" data-name="Grupo 6777" transform="translate(-1401.427 -75.348)">
    <g id="search-interface-symbol" transform="translate(1401.427 75.348)">
      <g id="_x34__4_" transform="translate(0)">
        <g id="Grupo_8" data-name="Grupo 8" transform="translate(0)">
          <path id="Caminho_11" data-name="Caminho 11" d="M17.49,16.691l-4.557-4.485a7.208,7.208,0,0,0,1.927-4.9A7.369,7.369,0,0,0,7.432,0,7.368,7.368,0,0,0,.006,7.308a7.368,7.368,0,0,0,7.426,7.308,7.469,7.469,0,0,0,4.674-1.632l4.575,4.5a.578.578,0,0,0,.808,0A.556.556,0,0,0,17.49,16.691Zm-10.058-3.2A6.234,6.234,0,0,1,1.149,7.308,6.234,6.234,0,0,1,7.432,1.124a6.234,6.234,0,0,1,6.284,6.184A6.234,6.234,0,0,1,7.432,13.492Z" transform="translate(-0.006)" fill="#000"/>
        </g>
      </g>
    </g>
  </g>
</svg>
