<svg xmlns="http://www.w3.org/2000/svg" width="46.749" height="45.801" viewBox="0 0 46.749 45.801">
  <g id="Grupo_7154" data-name="Grupo 7154" transform="translate(-403.669 -1.604)">
    <g id="Retângulo_10" data-name="Retângulo 10" transform="translate(403.669 1.604)" fill="none" stroke="#000" stroke-width="1">
      <rect width="46.749" height="45.801" stroke="none"/>
      <rect x="0.5" y="0.5" width="45.749" height="44.801" fill="none"/>
    </g>
    <path id="Icon_awesome-pinterest" data-name="Icon awesome-pinterest" d="M24.836,12.981A12.42,12.42,0,0,1,8.743,24.843a13.959,13.959,0,0,0,1.542-3.255c.15-.581.771-2.954.771-2.954A3.326,3.326,0,0,0,13.9,20.061c3.745,0,6.444-3.445,6.444-7.726,0-4.1-3.35-7.17-7.656-7.17-5.358,0-8.207,3.6-8.207,7.516,0,1.823.971,4.091,2.519,4.812.235.11.361.06.416-.165.04-.17.25-1.016.346-1.407a.372.372,0,0,0-.085-.356A4.89,4.89,0,0,1,6.76,12.73a5.374,5.374,0,0,1,5.608-5.388,4.9,4.9,0,0,1,5.188,5.052c0,3.36-1.7,5.688-3.906,5.688a1.8,1.8,0,0,1-1.838-2.243A24.953,24.953,0,0,0,12.839,11.7a1.559,1.559,0,0,0-1.572-1.748c-1.247,0-2.248,1.287-2.248,3.014a4.475,4.475,0,0,0,.371,1.843s-1.227,5.2-1.452,6.169a12.02,12.02,0,0,0-.045,3.565A12.419,12.419,0,1,1,24.836,12.981Z" transform="translate(416.297 10.521)"/>
  </g>
</svg>
